<svg width="80" height="80" viewBox="0 0 80 80" fill="none" xmlns="http://www.w3.org/2000/svg">
<circle opacity="0.05" cx="40" cy="40" r="40" fill="black"/>
<g opacity="0.9">
<path d="M25.3618 33.9129C25.6079 31.9071 27.3112 30.4 29.332 30.4H51.3701C53.4373 30.4 55.1639 31.975 55.3533 34.0335L57.0527 52.5022C57.2684 54.8462 55.4234 56.8688 53.0695 56.8688H27.0661C24.6638 56.8688 22.8034 54.7661 23.0959 52.3817L25.3618 33.9129Z" stroke="#B01736" stroke-width="2"/>
<path d="M40.0002 36.8267V50.4411" stroke="#B01736" stroke-width="2" stroke-linecap="round"/>
<path d="M32.8384 43.6342H47.1601" stroke="#B01736" stroke-width="2" stroke-linecap="round"/>
<path d="M46.9807 30.3996V26.9814C46.9807 24.7723 45.1899 22.9814 42.9807 22.9814H37.0171C34.808 22.9814 33.0171 24.7723 33.0171 26.9814V30.3996" stroke="#B01736" stroke-width="2"/>
</g>
</svg>
