<svg width="290" height="186" viewBox="0 0 290 186" fill="none" xmlns="http://www.w3.org/2000/svg">
<g clip-path="url(#clip0_8370_2244)">
<rect width="290" height="186" fill="#CB0F41"/>
<g opacity="0.4">
<path d="M211.027 107.137L311.363 107.137L311.363 105.943L211.027 105.943L211.027 107.137Z" fill="#A30C33"/>
<path d="M316.139 111.914L317.334 111.914L317.334 119.081C317.334 119.26 317.274 119.38 317.155 119.499L280.604 155.931C280.484 156.05 280.365 156.11 280.186 156.11L246.86 156.11L246.86 154.915L279.947 154.915L316.139 118.842L316.139 111.914Z" fill="#A30C33"/>
<path d="M229.54 51.5933L274.333 51.5933C274.512 51.5933 274.631 51.653 274.751 51.7725L317.155 94.1763C317.274 94.2958 317.334 94.4152 317.334 94.5944L317.334 100.567L316.139 100.567L316.139 94.8333L274.094 52.7878L229.54 52.7878L229.54 51.5933Z" fill="#A30C33"/>
<path d="M259.404 89.8165L283.413 89.8165C283.592 89.8165 283.711 89.8762 283.831 89.9957L299.956 106.002L299.12 106.838L283.174 91.011L259.404 91.011L259.404 89.8165Z" fill="#A30C33"/>
<path d="M276.005 106.062L276.842 106.898L260.776 123.083C260.656 123.203 260.537 123.262 260.358 123.262L236.11 123.262L236.11 122.068L260.119 122.068L276.005 106.062Z" fill="#A30C33"/>
<path d="M184.75 136.401L279.592 136.401C279.771 136.401 279.89 136.461 280.01 136.58L289.506 146.196L288.67 147.032L279.353 137.596L184.75 137.596L184.75 136.401Z" fill="#A30C33"/>
<path d="M269.318 155.095L270.154 155.931L254.626 171.46C254.507 171.579 254.387 171.639 254.208 171.639L204.458 171.639L204.458 170.444L253.969 170.444L269.318 155.095Z" fill="#A30C33"/>
<path d="M259.642 22.328L283.71 46.3967C283.83 46.5161 283.89 46.6356 283.89 46.8147L283.89 61.1484L282.695 61.1484L282.695 47.0536L258.806 23.1642L259.642 22.328Z" fill="#A30C33"/>
<path d="M265.078 51.953L265.914 52.7891L250.087 68.7354C249.968 68.8548 249.848 68.9146 249.669 68.9146L189.527 68.9146L189.527 67.7201L249.371 67.7201L265.078 51.953Z" fill="#A30C33"/>
<path d="M209.236 34.87L235.992 34.87C236.171 34.87 236.29 34.9297 236.41 35.0492L253.252 51.8913L252.416 52.7274L235.753 36.0645L209.236 36.0645L209.236 34.87Z" fill="#A30C33"/>
<path d="M204.456 168.294C202.939 168.294 201.709 169.524 201.709 171.041C201.709 172.558 202.939 173.788 204.456 173.788C205.973 173.788 207.203 172.558 207.203 171.041C207.203 169.524 205.973 168.294 204.456 168.294Z" fill="#A30C33"/>
<path d="M241.485 149.182C244.949 149.182 247.816 151.989 247.816 155.513C247.816 159.037 245.009 161.844 241.485 161.844C237.961 161.844 235.154 159.037 235.154 155.513C235.154 151.989 238.021 149.182 241.485 149.182ZM241.485 160.649C244.292 160.649 246.621 158.32 246.621 155.513C246.621 152.706 244.292 150.377 241.485 150.377C238.678 150.377 236.349 152.706 236.349 155.513C236.349 158.32 238.678 160.649 241.485 160.649Z" fill="#A30C33"/>
<path d="M241.487 152.767C239.97 152.767 238.74 153.997 238.74 155.514C238.74 157.031 239.97 158.261 241.487 158.261C243.004 158.261 244.234 157.031 244.234 155.514C244.234 153.997 243.004 152.767 241.487 152.767Z" fill="#A30C33"/>
<path d="M182.002 136.879C182.002 135.386 183.256 134.132 184.749 134.132C186.242 134.132 187.496 135.386 187.496 136.879C187.496 138.372 186.242 139.626 184.749 139.626C183.256 139.626 182.002 138.432 182.002 136.879Z" fill="#A30C33"/>
<path d="M236.112 119.918C234.595 119.918 233.365 121.148 233.365 122.665C233.365 124.182 234.595 125.412 236.112 125.412C237.629 125.412 238.859 124.182 238.859 122.665C238.859 121.148 237.629 119.918 236.112 119.918Z" fill="#A30C33"/>
<path d="M205.652 100.208C209.116 100.208 211.982 103.015 211.982 106.539C211.982 110.063 209.175 112.87 205.652 112.87C202.128 112.87 199.321 110.063 199.321 106.539C199.321 103.015 202.188 100.208 205.652 100.208ZM205.652 111.675C208.459 111.675 210.788 109.346 210.788 106.539C210.788 103.732 208.459 101.403 205.652 101.403C202.845 101.403 200.515 103.732 200.515 106.539C200.515 109.346 202.845 111.675 205.652 111.675Z" fill="#A30C33"/>
<path d="M205.655 103.793C204.138 103.793 202.908 105.023 202.908 106.54C202.908 108.057 204.138 109.287 205.655 109.287C207.172 109.287 208.402 108.057 208.402 106.54C208.402 105.023 207.172 103.793 205.655 103.793Z" fill="#A30C33"/>
<path d="M259.406 87.6663C257.889 87.6663 256.659 88.8963 256.659 90.4136C256.659 91.9309 257.889 93.1609 259.406 93.1609C260.923 93.1609 262.153 91.9309 262.153 90.4136C262.153 88.8963 260.923 87.6663 259.406 87.6663Z" fill="#A30C33"/>
<path d="M189.525 65.5683C188.008 65.5683 186.778 66.7983 186.778 68.3156C186.778 69.8329 188.008 71.0629 189.525 71.0629C191.042 71.0629 192.272 69.8329 192.272 68.3156C192.272 66.7983 191.042 65.5683 189.525 65.5683Z" fill="#A30C33"/>
<path d="M224.166 45.9786C227.63 45.9786 230.497 48.7856 230.497 52.3093C230.497 55.833 227.69 58.64 224.166 58.64C220.642 58.64 217.835 55.833 217.835 52.3093C217.835 48.7856 220.702 45.9786 224.166 45.9786ZM224.166 57.4455C226.973 57.4455 229.302 55.1163 229.302 52.3093C229.302 49.5023 226.973 47.1731 224.166 47.1731C221.359 47.1731 219.03 49.5023 219.03 52.3093C219.03 55.1163 221.359 57.4455 224.166 57.4455Z" fill="#A30C33"/>
<path d="M221.419 52.3101C221.419 50.817 222.674 49.5628 224.167 49.5628C225.66 49.5628 226.914 50.817 226.914 52.3101C226.914 53.8032 225.66 55.0574 224.167 55.0574C222.674 55.0574 221.419 53.8032 221.419 52.3101Z" fill="#A30C33"/>
<path d="M209.235 32.7207C207.718 32.7207 206.488 33.9508 206.488 35.468C206.488 36.9853 207.718 38.2153 209.235 38.2153C210.752 38.2153 211.982 36.9853 211.982 35.468C211.982 33.9508 210.752 32.7207 209.235 32.7207Z" fill="#A30C33"/>
<path d="M256.474 22.7474C256.474 21.2543 257.728 20.0001 259.221 20.0001C260.715 20.0001 261.969 21.2543 261.969 22.7474C261.969 24.2404 260.715 25.4946 259.221 25.4946C257.669 25.4349 256.474 24.2404 256.474 22.7474Z" fill="#A30C33"/>
<g opacity="0.4">
<path d="M256.474 107.085L312.554 107.085L312.554 105.995L256.474 105.995L256.474 107.085Z" fill="black"/>
<path d="M316.139 111.914L317.334 111.914L317.334 119.081C317.334 119.26 317.274 119.38 317.155 119.499L280.604 155.931C280.484 156.05 280.365 156.11 280.186 156.11L246.86 156.11L246.86 154.915L279.947 154.915L316.139 118.842L316.139 111.914Z" fill="black"/>
<path d="M229.54 51.5933L274.333 51.5933C274.512 51.5933 274.631 51.653 274.751 51.7725L317.155 94.1763C317.274 94.2958 317.334 94.4152 317.334 94.5944L317.334 100.567L316.139 100.567L316.139 94.8333L274.094 52.7878L229.54 52.7878L229.54 51.5933Z" fill="black"/>
<path d="M259.402 89.8165L283.411 89.8165C283.59 89.8165 283.709 89.8762 283.829 89.9957L299.954 106.002L299.118 106.838L283.172 91.011L259.402 91.011L259.402 89.8165Z" fill="black"/>
<path d="M276.005 106.062L276.841 106.898L260.775 123.083C260.656 123.203 260.536 123.262 260.357 123.262L244.269 123.262L244.269 122.068L260.118 122.068L276.005 106.062Z" fill="black"/>
<path d="M184.748 136.401L279.589 136.401C279.768 136.401 279.888 136.461 280.007 136.58L289.503 146.196L288.667 147.032L279.35 137.596L184.748 137.596L184.748 136.401Z" fill="black"/>
<path d="M269.314 155.095L270.15 155.931L254.622 171.46C254.503 171.579 254.383 171.639 254.204 171.639L204.454 171.639L204.454 170.444L253.965 170.444L269.314 155.095Z" fill="black"/>
<path d="M259.641 22.328L283.71 46.3967C283.829 46.5161 283.889 46.6356 283.889 46.8147L283.889 61.1484L282.694 61.1484L282.694 47.0536L258.805 23.1642L259.641 22.328Z" fill="black"/>
<path d="M265.077 51.953L265.913 52.7891L250.086 68.7354C249.967 68.8548 249.847 68.9146 249.668 68.9146L189.526 68.9146L189.526 67.7201L249.37 67.7201L265.077 51.953Z" fill="black"/>
<path d="M209.235 34.87L235.991 34.87C236.17 34.87 236.289 34.9297 236.409 35.0492L253.251 51.8913L252.415 52.7274L235.752 36.0645L209.235 36.0645L209.235 34.87Z" fill="black"/>
<path d="M204.456 168.294C202.939 168.294 201.709 169.524 201.709 171.041C201.709 172.558 202.939 173.788 204.456 173.788C205.973 173.788 207.203 172.558 207.203 171.041C207.203 169.524 205.973 168.294 204.456 168.294Z" fill="black"/>
<path d="M241.487 149.182C244.951 149.182 247.817 151.989 247.817 155.513C247.817 159.037 245.01 161.844 241.487 161.844C237.963 161.844 235.156 159.037 235.156 155.513C235.156 151.989 238.023 149.182 241.487 149.182ZM241.487 160.649C244.294 160.649 246.623 158.32 246.623 155.513C246.623 152.706 244.294 150.377 241.487 150.377C238.68 150.377 236.35 152.706 236.35 155.513C236.35 158.32 238.68 160.649 241.487 160.649Z" fill="black"/>
<path d="M182.001 136.879C182.001 135.386 183.255 134.132 184.748 134.132C186.241 134.132 187.495 135.386 187.495 136.879C187.495 138.372 186.241 139.626 184.748 139.626C183.255 139.626 182.001 138.432 182.001 136.879Z" fill="black"/>
<path d="M244.271 119.918C242.754 119.918 241.524 121.148 241.524 122.665C241.524 124.182 242.754 125.412 244.271 125.412C245.789 125.412 247.019 124.182 247.019 122.665C247.019 121.148 245.789 119.918 244.271 119.918Z" fill="black"/>
<path d="M259.405 87.6663C257.888 87.6663 256.658 88.8963 256.658 90.4136C256.658 91.9309 257.888 93.1609 259.405 93.1609C260.922 93.1609 262.152 91.9309 262.152 90.4136C262.152 88.8963 260.922 87.6663 259.405 87.6663Z" fill="black"/>
<path d="M255.171 104.09C253.653 104.09 252.423 105.321 252.423 106.838C252.423 108.355 253.653 109.585 255.171 109.585C256.688 109.585 257.918 108.355 257.918 106.838C257.918 105.321 256.688 104.09 255.171 104.09Z" fill="black"/>
<path d="M189.525 65.5683C188.008 65.5683 186.778 66.7983 186.778 68.3156C186.778 69.8329 188.008 71.0629 189.525 71.0629C191.042 71.0629 192.272 69.8329 192.272 68.3156C192.272 66.7983 191.042 65.5683 189.525 65.5683Z" fill="black"/>
<path d="M224.164 45.9786C227.628 45.9786 230.495 48.7856 230.495 52.3093C230.495 55.833 227.688 58.64 224.164 58.64C220.641 58.64 217.834 55.833 217.834 52.3093C217.834 48.7856 220.7 45.9786 224.164 45.9786ZM224.164 57.4455C226.971 57.4455 229.301 55.1163 229.301 52.3093C229.301 49.5023 226.971 47.1731 224.164 47.1731C221.357 47.1731 219.028 49.5023 219.028 52.3093C219.028 55.1163 221.357 57.4455 224.164 57.4455Z" fill="black"/>
<path d="M209.234 32.7207C207.717 32.7207 206.487 33.9508 206.487 35.468C206.487 36.9853 207.717 38.2153 209.234 38.2153C210.751 38.2153 211.981 36.9853 211.981 35.468C211.981 33.9508 210.751 32.7207 209.234 32.7207Z" fill="black"/>
<path d="M256.474 22.7474C256.474 21.2543 257.728 20.0001 259.221 20.0001C260.715 20.0001 261.969 21.2543 261.969 22.7474C261.969 24.2404 260.715 25.4946 259.221 25.4946C257.669 25.4349 256.474 24.2404 256.474 22.7474Z" fill="black"/>
</g>
</g>
<g opacity="0.4">
<path d="M65.8618 87.2271H-34.8567V88.4261H65.8618V87.2271Z" fill="#A30C33"/>
<path d="M-39.6496 82.4321H-40.8486V75.2379C-40.8486 75.058 -40.7887 74.9381 -40.6688 74.8182L-3.97849 38.2478C-3.85858 38.1279 -3.73867 38.068 -3.55882 38.068L29.8941 38.068V39.267L-3.31902 39.267L-39.6496 75.4777V82.4321Z" fill="#A30C33"/>
<path d="M47.28 142.983H2.31642C2.13657 142.983 2.01666 142.923 1.89676 142.803L-40.6688 100.238C-40.7887 100.118 -40.8486 99.9978 -40.8486 99.8179V93.8228H-39.6496V99.5781L2.55622 141.784H47.28V142.983Z" fill="#A30C33"/>
<path d="M17.3018 104.614H-6.79873C-6.97858 104.614 -7.09848 104.554 -7.21838 104.434L-23.4053 88.367L-22.566 87.5277L-6.55891 103.415H17.3018V104.614Z" fill="#A30C33"/>
<path d="M0.63621 88.3067L-0.203125 87.4673L15.9238 71.2205C16.0437 71.1006 16.1636 71.0406 16.3435 71.0406H40.6838V72.2397H16.5833L0.63621 88.3067Z" fill="#A30C33"/>
<path d="M92.2391 57.8515L-2.96383 57.8515C-3.14368 57.8515 -3.26359 57.7916 -3.38349 57.6717L-12.9158 48.0195L-12.0765 47.1802L-2.72403 56.6525L92.2391 56.6525V57.8515Z" fill="#A30C33"/>
<path d="M7.34908 39.088L6.50977 38.2487L22.0971 22.6613C22.217 22.5414 22.337 22.4814 22.5168 22.4814L72.4564 22.4814V23.6805L22.7566 23.6805L7.34908 39.088Z" fill="#A30C33"/>
<path d="M17.0622 172.36L-7.09823 148.199C-7.21813 148.079 -7.27808 147.96 -7.27808 147.78L-7.27808 133.391H-6.07905L-6.07905 147.54L17.9015 171.52L17.0622 172.36Z" fill="#A30C33"/>
<path d="M11.6069 142.622L10.7676 141.783L26.6547 125.776C26.7746 125.656 26.8945 125.596 27.0744 125.596H87.4455V126.795H27.3741L11.6069 142.622Z" fill="#A30C33"/>
<path d="M67.6618 159.77H40.8035C40.6237 159.77 40.5038 159.71 40.3839 159.59L23.4775 142.684L24.3169 141.844L41.0433 158.571H67.6618V159.77Z" fill="#A30C33"/>
<path d="M72.4589 25.8373C73.982 25.8373 75.2167 24.6026 75.2167 23.0795C75.2167 21.5565 73.982 20.3218 72.4589 20.3218C70.9359 20.3218 69.7012 21.5565 69.7012 23.0795C69.7012 24.6026 70.9359 25.8373 72.4589 25.8373Z" fill="#A30C33"/>
<path d="M35.2885 45.0217C31.8113 45.0217 28.9336 42.204 28.9336 38.6669C28.9336 35.1297 31.7513 32.312 35.2885 32.312C38.8256 32.312 41.6433 35.1297 41.6433 38.6669C41.6433 42.204 38.7656 45.0217 35.2885 45.0217ZM35.2885 33.511C32.4707 33.511 30.1326 35.8491 30.1326 38.6669C30.1326 41.4846 32.4707 43.8227 35.2885 43.8227C38.1062 43.8227 40.4443 41.4846 40.4443 38.6669C40.4443 35.8491 38.1062 33.511 35.2885 33.511Z" fill="#A30C33"/>
<path d="M35.2863 41.4239C36.8094 41.4239 38.0441 40.1892 38.0441 38.6661C38.0441 37.143 36.8094 35.9083 35.2863 35.9083C33.7633 35.9083 32.5286 37.143 32.5286 38.6661C32.5286 40.1892 33.7633 41.4239 35.2863 41.4239Z" fill="#A30C33"/>
<path d="M94.9989 57.3721C94.9989 58.8709 93.74 60.1299 92.2412 60.1299C90.7424 60.1299 89.4834 58.8709 89.4834 57.3721C89.4834 55.8734 90.7424 54.6144 92.2412 54.6144C93.74 54.6144 94.9989 55.8134 94.9989 57.3721Z" fill="#A30C33"/>
<path d="M40.6826 74.3982C42.2056 74.3982 43.4403 73.1635 43.4403 71.6405C43.4403 70.1174 42.2056 68.8827 40.6826 68.8827C39.1595 68.8827 37.9248 70.1174 37.9248 71.6405C37.9248 73.1635 39.1595 74.3982 40.6826 74.3982Z" fill="#A30C33"/>
<path d="M71.2582 94.1825C67.781 94.1825 64.9033 91.3648 64.9033 87.8276C64.9033 84.2905 67.721 81.4728 71.2582 81.4728C74.7953 81.4728 77.613 84.2905 77.613 87.8276C77.613 91.3648 74.7354 94.1825 71.2582 94.1825ZM71.2582 82.6718C68.4405 82.6718 66.1023 85.0099 66.1023 87.8276C66.1023 90.6454 68.4405 92.9835 71.2582 92.9835C74.0759 92.9835 76.414 90.6454 76.414 87.8276C76.414 85.0099 74.0759 82.6718 71.2582 82.6718Z" fill="#A30C33"/>
<path d="M71.2558 90.5845C72.7789 90.5845 74.0136 89.3498 74.0136 87.8267C74.0136 86.3037 72.7789 85.069 71.2558 85.069C69.7327 85.069 68.498 86.3037 68.498 87.8267C68.498 89.3498 69.7327 90.5845 71.2558 90.5845Z" fill="#A30C33"/>
<path d="M17.2988 106.773C18.8219 106.773 20.0566 105.538 20.0566 104.015C20.0566 102.492 18.8219 101.257 17.2988 101.257C15.7757 101.257 14.541 102.492 14.541 104.015C14.541 105.538 15.7757 106.773 17.2988 106.773Z" fill="#A30C33"/>
<path d="M87.4462 128.955C88.9693 128.955 90.204 127.72 90.204 126.197C90.204 124.674 88.9693 123.439 87.4462 123.439C85.9232 123.439 84.6885 124.674 84.6885 126.197C84.6885 127.72 85.9232 128.955 87.4462 128.955Z" fill="#A30C33"/>
<path d="M52.6732 148.619C49.196 148.619 46.3184 145.801 46.3184 142.264C46.3184 138.727 49.1361 135.909 52.6732 135.909C56.2104 135.909 59.0281 138.727 59.0281 142.264C59.0281 145.801 56.1504 148.619 52.6732 148.619ZM52.6732 137.108C49.8555 137.108 47.5174 139.447 47.5174 142.264C47.5174 145.082 49.8555 147.42 52.6732 147.42C55.4909 147.42 57.829 145.082 57.829 142.264C57.829 139.447 55.4909 137.108 52.6732 137.108Z" fill="#A30C33"/>
<path d="M55.4303 142.263C55.4303 143.762 54.1714 145.021 52.6726 145.021C51.1738 145.021 49.9148 143.762 49.9148 142.263C49.9148 140.765 51.1738 139.506 52.6726 139.506C54.1714 139.506 55.4303 140.765 55.4303 142.263Z" fill="#A30C33"/>
<path d="M67.6611 161.927C69.1842 161.927 70.4189 160.693 70.4189 159.17C70.4189 157.647 69.1842 156.412 67.6611 156.412C66.138 156.412 64.9033 157.647 64.9033 159.17C64.9033 160.693 66.138 161.927 67.6611 161.927Z" fill="#A30C33"/>
<path d="M20.2421 171.939C20.2421 173.438 18.9831 174.697 17.4843 174.697C15.9855 174.697 14.7266 173.438 14.7266 171.939C14.7266 170.44 15.9855 169.181 17.4843 169.181C19.0431 169.241 20.2421 170.44 20.2421 171.939Z" fill="#A30C33"/>
<g opacity="0.4">
<path d="M65.866 87.2271H-36.0515V88.4261H65.866V87.2271Z" fill="black"/>
<path d="M-39.6494 82.4321H-40.8484V75.2379C-40.8484 75.058 -40.7884 74.9381 -40.6685 74.8182L-3.97824 38.2478C-3.85834 38.1279 -3.73843 38.068 -3.55857 38.068L29.8943 38.068V39.267L-3.31877 39.267L-39.6494 75.4777V82.4321Z" fill="black"/>
<path d="M47.2803 142.983H2.31667C2.13681 142.983 2.0169 142.923 1.897 142.803L-40.6685 100.238C-40.7884 100.118 -40.8484 99.9978 -40.8484 99.8179V93.8228H-39.6494V99.5781L2.55647 141.784H47.2803V142.983Z" fill="black"/>
<path d="M17.304 104.614H-6.79653C-6.97639 104.614 -7.09628 104.554 -7.21618 104.434L-23.4031 88.367L-22.5638 87.5277L-6.55671 103.415H17.304V104.614Z" fill="black"/>
<path d="M0.637187 88.3067L-0.202148 87.4673L15.9248 71.2205C16.0447 71.1006 16.1646 71.0406 16.3445 71.0406H40.6848V72.2397H16.5843L0.637187 88.3067Z" fill="black"/>
<path d="M92.243 57.8515L-2.95992 57.8515C-3.13978 57.8515 -3.25969 57.7916 -3.37959 57.6717L-12.9119 48.0195L-12.0725 47.1802L-2.72012 56.6525L92.243 56.6525V57.8515Z" fill="black"/>
<path d="M7.35323 39.088L6.51392 38.2487L22.1013 22.6613C22.2212 22.5414 22.3411 22.4814 22.521 22.4814L72.4605 22.4814V23.6805L22.7608 23.6805L7.35323 39.088Z" fill="black"/>
<path d="M17.0642 172.36L-7.09628 148.199C-7.21618 148.079 -7.27612 147.96 -7.27612 147.78L-7.27612 133.391H-6.07709L-6.07709 147.54L17.9035 171.52L17.0642 172.36Z" fill="black"/>
<path d="M11.6071 142.622L10.7678 141.783L26.655 125.776C26.7749 125.656 26.8948 125.596 27.0746 125.596H87.4457V126.795H27.3744L11.6071 142.622Z" fill="black"/>
<path d="M67.662 159.77H40.8038C40.6239 159.77 40.504 159.71 40.3841 159.59L23.4778 142.684L24.3171 141.844L41.0436 158.571H67.662V159.77Z" fill="black"/>
<path d="M72.4592 25.8373C73.9823 25.8373 75.217 24.6026 75.217 23.0795C75.217 21.5565 73.9823 20.3218 72.4592 20.3218C70.9361 20.3218 69.7014 21.5565 69.7014 23.0795C69.7014 24.6026 70.9361 25.8373 72.4592 25.8373Z" fill="black"/>
<path d="M35.2877 45.0217C31.8105 45.0217 28.9329 42.204 28.9329 38.6669C28.9329 35.1297 31.7506 32.312 35.2877 32.312C38.8249 32.312 41.6426 35.1297 41.6426 38.6669C41.6426 42.204 38.7649 45.0217 35.2877 45.0217ZM35.2877 33.511C32.47 33.511 30.1319 35.8491 30.1319 38.6669C30.1319 41.4846 32.47 43.8227 35.2877 43.8227C38.1054 43.8227 40.4436 41.4846 40.4436 38.6669C40.4436 35.8491 38.1054 33.511 35.2877 33.511Z" fill="black"/>
<path d="M95.0011 57.3721C95.0011 58.8709 93.7422 60.1299 92.2434 60.1299C90.7446 60.1299 89.4856 58.8709 89.4856 57.3721C89.4856 55.8734 90.7446 54.6144 92.2434 54.6144C93.7422 54.6144 95.0011 55.8134 95.0011 57.3721Z" fill="black"/>
<path d="M40.6828 74.3982C42.2059 74.3982 43.4406 73.1635 43.4406 71.6405C43.4406 70.1174 42.2059 68.8827 40.6828 68.8827C39.1597 68.8827 37.925 70.1174 37.925 71.6405C37.925 73.1635 39.1597 74.3982 40.6828 74.3982Z" fill="black"/>
<path d="M71.2594 94.1825C67.7822 94.1825 64.9045 91.3648 64.9045 87.8276C64.9045 84.2905 67.7223 81.4728 71.2594 81.4728C74.7965 81.4728 77.6143 84.2905 77.6143 87.8276C77.6143 91.3648 74.7366 94.1825 71.2594 94.1825ZM71.2594 82.6718C68.4417 82.6718 66.1036 85.0099 66.1036 87.8276C66.1036 90.6454 68.4417 92.9835 71.2594 92.9835C74.0771 92.9835 76.4152 90.6454 76.4152 87.8276C76.4152 85.0099 74.0771 82.6718 71.2594 82.6718Z" fill="black"/>
<path d="M17.301 106.773C18.8241 106.773 20.0588 105.538 20.0588 104.015C20.0588 102.492 18.8241 101.257 17.301 101.257C15.7779 101.257 14.5432 102.492 14.5432 104.015C14.5432 105.538 15.7779 106.773 17.301 106.773Z" fill="black"/>
<path d="M87.4465 128.955C88.9696 128.955 90.2043 127.72 90.2043 126.197C90.2043 124.674 88.9696 123.439 87.4465 123.439C85.9234 123.439 84.6887 124.674 84.6887 126.197C84.6887 127.72 85.9234 128.955 87.4465 128.955Z" fill="black"/>
<path d="M52.6754 148.619C49.1982 148.619 46.3206 145.801 46.3206 142.264C46.3206 138.727 49.1383 135.909 52.6754 135.909C56.2126 135.909 59.0303 138.727 59.0303 142.264C59.0303 145.801 56.1526 148.619 52.6754 148.619ZM52.6754 137.108C49.8577 137.108 47.5196 139.447 47.5196 142.264C47.5196 145.082 49.8577 147.42 52.6754 147.42C55.4931 147.42 57.8312 145.082 57.8312 142.264C57.8312 139.447 55.4931 137.108 52.6754 137.108Z" fill="black"/>
<path d="M67.6623 161.927C69.1854 161.927 70.4201 160.693 70.4201 159.17C70.4201 157.647 69.1854 156.412 67.6623 156.412C66.1392 156.412 64.9045 157.647 64.9045 159.17C64.9045 160.693 66.1392 161.927 67.6623 161.927Z" fill="black"/>
<path d="M20.2423 171.939C20.2423 173.438 18.9833 174.697 17.4846 174.697C15.9858 174.697 14.7268 173.438 14.7268 171.939C14.7268 170.44 15.9858 169.181 17.4846 169.181C19.0433 169.241 20.2423 170.44 20.2423 171.939Z" fill="black"/>
</g>
</g>
<rect opacity="0.5" y="-19" width="290" height="205" fill="#A30C33"/>
</g>
<defs>
<clipPath id="clip0_8370_2244">
<rect width="290" height="186" fill="white"/>
</clipPath>
</defs>
</svg>
